name C:\Users\u0101727\Documents\MyRepositories\upper-imu-dc\Results\main_tracking\Case_52\kinematics.mot
datacolumns 10
datarows 28
range 2.04000000 2.31000000
endheader 
time	clav_prot	clav_elev	scapula_abduction	scapula_elevation	scapula_upward_rot	scapula_winging	plane_elv	shoulder_elv	axial_rot	
          2.04000000	        -24.66498397	         14.21122659	        -12.95211465	          5.76674448	         29.06595579	         -1.10726007	          5.09523427	          1.19812210	         33.16953686	
          2.05000000	        -24.69110454	         13.88067348	        -12.96960656	          5.56888872	         28.85218518	         -1.08212136	          4.39697056	          1.38812856	         33.83697497	
          2.06000000	        -24.70252649	         13.50813384	        -12.96264493	          5.34846902	         28.60619046	         -1.04683251	          3.63866302	          1.61383084	         34.53883286	
          2.07000000	        -24.69716545	         13.09168037	        -12.92920803	          5.10482380	         28.32537748	         -0.99954475	          2.81963404	          1.87880576	         35.26806597	
          2.08000000	        -24.67324358	         12.63005916	        -12.86793595	          4.83764809	         28.00766867	         -0.93843799	          1.93987216	          2.18615371	         36.01748325	
          2.09000000	        -24.62937012	         12.12281181	        -12.77819692	          4.54704257	         27.65165166	         -0.86179634	          0.99998289	          2.53834715	         36.78001982	
          2.10000000	        -24.56460456	         11.57037113	        -12.66010389	          4.23354701	         27.25671611	         -0.76809000	          0.00120783	          2.93709281	         37.54891643	
          2.11000000	        -24.47849276	         10.97411821	        -12.51446948	          3.89815221	         26.82316754	         -0.65605817	         -1.05452432	          3.38321343	         38.31783475	
          2.12000000	        -24.37107043	         10.33639488	        -12.34269992	          3.54228926	         26.35230632	         -0.52478708	         -2.16452707	          3.87655657	         39.08090400	
          2.13000000	        -24.24283296	          9.66047601	        -12.14664274	          3.16780155	         25.84646136	         -0.37377669	         -3.32525293	          4.41593521	         39.83267740	
          2.14000000	        -24.09467360	          8.95051301	        -11.92841045	          2.77691046	         25.30896798	         -0.20299025	         -4.53213684	          4.99910165	         40.56798766	
          2.15000000	        -23.92779016	          8.21146093	        -11.69019828	          2.37218664	         24.74407831	         -0.01288169	         -5.77938022	          5.62275162	         41.28172038	
          2.16000000	        -23.74355832	          7.44900285	        -11.43410318	          1.95653935	         24.15679765	          0.19560074	         -7.05970550	          6.28254935	         41.96856590	
          2.17000000	        -23.54334831	          6.66945983	        -11.16190782	          1.53322152	         23.55262902	          0.42103948	         -8.36414795	          6.97318310	         42.62285133	
          2.18000000	        -23.32826636	          5.87969595	        -10.87480278	          1.10586143	         22.93721858	          0.66160015	         -9.68197208	          7.68843537	         43.23853978	
          2.19000000	        -23.09882728	          5.08706082	        -10.57306049	          0.67854904	         22.31591700	          0.91509716	        -11.00081854	          8.42121030	         43.80945569	
          2.20000000	        -22.85471549	          4.29932724	        -10.25610158	          0.25600169	         21.69298585	          1.17914447	        -12.30715706	          9.16380281	         44.32985308	
          2.21000000	        -22.36044533	          3.50609634	         -9.50051522	         -0.15638588	         21.07168333	          1.45104400	        -13.58682571	          9.90781273	         44.79515676	
          2.22000000	        -22.36534764	          2.77353675	         -9.65487321	         -0.55451661	         20.45496976	          1.72800690	        -14.82435674	         10.64474120	         45.20105905	
          2.23000000	        -22.09407151	          2.04177834	         -9.32352671	         -0.93684504	         19.84236421	          2.00868543	        -16.00636949	         11.36945278	         45.54755072	
          2.24000000	        -21.79255849	          1.35213707	         -8.95288472	         -1.28821750	         19.23834185	          2.28580796	        -17.11224169	         12.07039166	         45.83163273	
          2.25000000	        -21.49686753	          0.70537829	         -8.60257031	         -1.61112291	         18.64717655	          2.55693055	        -18.13608458	         12.74321685	         46.05948169	
          2.26000000	        -21.20826648	          0.10373818	         -8.27082913	         -1.90514092	         18.07410200	          2.81865035	        -19.07101506	         13.38022998	         46.23770611	
          2.27000000	        -20.93072332	         -0.45148017	         -7.96020586	         -2.17086593	         17.52492557	          3.06793820	        -19.91200922	         13.97485148	         46.37473534	
          2.28000000	        -20.66763082	         -0.95984421	         -7.67246415	         -2.40943273	         17.00503120	          3.30232514	        -20.65650754	         14.52174208	         46.48056894	
          2.29000000	        -20.42174923	         -1.42175557	         -7.40879037	         -2.62237344	         16.51891657	          3.52000750	        -21.30456978	         15.01674976	         46.56620002	
          2.30000000	        -20.19516639	         -1.83835224	         -7.16988896	         -2.81147681	         16.06994133	          3.71986047	        -21.85870591	         15.45690491	         46.64290735	
          2.31000000	        -19.98938372	         -2.21144117	         -6.95611106	         -2.97874228	         15.66034365	          3.90138712	        -22.32353988	         15.84041494	         46.72158622	
